<svg width="253" height="63" viewBox="0 0 253 63" fill="none" xmlns="http://www.w3.org/2000/svg">
<path d="M68.076 53.1H53.712V51.21H54.846C55.518 51.21 55.854 51.042 55.854 50.706C55.854 50.538 55.518 49.95 54.846 48.942L41.994 29.034L37.584 33.444V48.438C37.584 49.068 37.626 49.551 37.71 49.887C37.794 50.223 38.067 50.538 38.529 50.832C38.991 51.084 39.684 51.21 40.608 51.21H43.002V53.1H27V51.21H29.016C29.94 51.21 30.633 51.084 31.095 50.832C31.557 50.538 31.83 50.223 31.914 49.887C31.998 49.551 32.04 49.068 32.04 48.438V13.662C32.04 13.032 31.998 12.549 31.914 12.213C31.83 11.877 31.557 11.583 31.095 11.331C30.633 11.037 29.94 10.89 29.016 10.89H27V9H43.002V10.89H40.608C39.684 10.89 38.991 11.037 38.529 11.331C38.067 11.583 37.794 11.877 37.71 12.213C37.626 12.549 37.584 13.032 37.584 13.662V30.042L53.838 14.166C54.678 13.41 55.098 12.738 55.098 12.15C55.098 11.31 54.468 10.89 53.208 10.89H52.074V9H64.548V10.89H63.54C62.784 10.89 61.692 11.289 60.264 12.087C58.836 12.885 57.618 13.788 56.61 14.796L45.9 25.38L60.138 46.8C60.642 47.472 61.104 48.144 61.524 48.816C62.784 50.412 64.464 51.21 66.564 51.21H68.076V53.1Z" fill="black"/>
<path d="M90.812 41.048V44.1H76.112V24.5H90.42V27.552H79.752V32.648H89.216V35.644H79.752V41.048H90.812Z" fill="black"/>
<path d="M119.376 24.5L110.836 44.1H107.252L98.6844 24.5H102.632L109.156 39.62L115.736 24.5H119.376Z" fill="black"/>
<path d="M143.005 41.048V44.1H128.305V24.5H142.613V27.552H131.945V32.648H141.409V35.644H131.945V41.048H143.005Z" fill="black"/>
<path d="M171.338 24.5V44.1H168.342L157.534 30.828V44.1H153.922V24.5H156.918L167.726 37.772V24.5H171.338Z" fill="black"/>
<path d="M187.426 27.58H180.93V24.5H197.562V27.58H191.066V44.1H187.426V27.58Z" fill="black"/>
<path d="M213.039 44.38C211.527 44.38 210.061 44.1653 208.643 43.736C207.243 43.3067 206.132 42.7373 205.311 42.028L206.571 39.2C207.373 39.8347 208.353 40.3573 209.511 40.768C210.687 41.16 211.863 41.356 213.039 41.356C214.495 41.356 215.577 41.1227 216.287 40.656C217.015 40.1893 217.379 39.5733 217.379 38.808C217.379 38.248 217.173 37.7907 216.763 37.436C216.371 37.0627 215.867 36.7733 215.251 36.568C214.635 36.3627 213.795 36.1293 212.731 35.868C211.237 35.5133 210.024 35.1587 209.091 34.804C208.176 34.4493 207.383 33.8987 206.711 33.152C206.057 32.3867 205.731 31.36 205.731 30.072C205.731 28.9893 206.02 28.0093 206.599 27.132C207.196 26.236 208.083 25.5267 209.259 25.004C210.453 24.4813 211.909 24.22 213.627 24.22C214.821 24.22 215.997 24.3693 217.155 24.668C218.312 24.9667 219.311 25.396 220.151 25.956L219.003 28.784C218.144 28.28 217.248 27.8973 216.315 27.636C215.381 27.3747 214.476 27.244 213.599 27.244C212.161 27.244 211.088 27.4867 210.379 27.972C209.688 28.4573 209.343 29.1013 209.343 29.904C209.343 30.464 209.539 30.9213 209.931 31.276C210.341 31.6307 210.855 31.9107 211.471 32.116C212.087 32.3213 212.927 32.5547 213.991 32.816C215.447 33.152 216.641 33.5067 217.575 33.88C218.508 34.2347 219.301 34.7853 219.955 35.532C220.627 36.2787 220.963 37.2867 220.963 38.556C220.963 39.6387 220.664 40.6187 220.067 41.496C219.488 42.3733 218.601 43.0733 217.407 43.596C216.212 44.1187 214.756 44.38 213.039 44.38Z" fill="black"/>
<path d="M70.48 33.1H226.48V35.1H70.48V33.1Z" fill="black"/>
<rect x="16" width="221" height="1" fill="black"/>
<rect x="16" y="61.1" width="221" height="1" fill="black"/>
<path d="M9 22L11.0206 28.2188H17.5595L12.2694 32.0623L14.2901 38.2812L9 34.4377L3.70993 38.2812L5.73056 32.0623L0.440492 28.2188H6.97937L9 22Z" fill="#762300"/>
<path d="M244 22L246.021 28.2188H252.56L247.269 32.0623L249.29 38.2812L244 34.4377L238.71 38.2812L240.731 32.0623L235.44 28.2188H241.979L244 22Z" fill="#762300"/>
</svg>
